<svg version="1" xmlns="http://www.w3.org/2000/svg" width="1133.333" height="1133.333" viewBox="0 0 850.000000 850.000000"><path d="M754.6 1.7c-.4.4-1.6.8-2.8 1-1.2.2-2.9 1-3.8 1.8-.9.8-2 1.2-2.3.8-.4-.3-1.2.8-1.8 2.6-.6 1.7-2 3.6-3 4.2-5.7 3-24.1 7.7-27.6 7.1-.7-.2-1.3.1-1.3.6 0 .4-1.6.6-3.5.4-2.9-.4-3.4-.1-2.9 1.2.5 1.2 0 1.6-1.7 1.7-1.3 0-3.3.2-4.4.5-1.1.2-3.8.6-6 .9-2.2.3-4.1.9-4.3 1.5-.2.5-1.1 1-2.1 1-.9 0-2.1.4-2.7.9-.5.6-2 1.1-3.4 1.3-1.4.2-4 1.1-5.9 2.1-1.9.9-4 1.7-4.8 1.7-.8 0-1.2.4-.9.8.4.7-5.5 3.9-6.1 3.4-.3-.2-2 1.2-6.7 5.4-1.5 1.3-3.3 2.4-4 2.4-.7 0-2.6 1.5-4.3 3.2-5.1 5.4-7.6 7.5-11.3 9.7-1.9 1.1-3.1 2.1-2.7 2.1.5 0 .2.7-.7 1.5-.8.8-1.9 1.5-2.5 1.5-1.6 0-10.5 4.3-10.9 5.2-.2.5-.8.6-1.3.2-.5-.3-.9 0-.9.6s-.4.9-.8.6c-.5-.3-2.7.2-5 .9-4.6 1.6-8.7 2.3-17.6 3.1-7.6.6-8 .7-8.8 1.9-.5.7-.8.6-.8 0 0-1.6-6.2-1.8-7.2-.3-.6 1-.8 1-.8 0 0-.6-.7-1.2-1.6-1.2-.9 0-1.2.5-.8 1.2.5.9.2.9-.9-.1-1.4-1.1-1.7-1.1-1.7 0s-.2 1.1-.9.1c-.9-1.6-9.1-1.3-9.1.2 0 .7-.4.6-.8-.1s-1.6-1.2-2.7-1.2c-4.1 0-14.2-1.1-21-2.2-9.3-1.6-11.3-1.9-16-2.5-2.1-.2-4.2-.8-4.5-1.3-.3-.5-1.8-1.1-3.5-1.5-1.6-.3-4.1-.9-5.5-1.2-5.3-1.1-6.7-1.4-11.5-2-2.7-.4-5.3-1.2-5.7-1.8-.6-.8-1.1-.6-1.8.4-.9 1.3-1 1.3-1.1 0-.1-.8-.1-1.9 0-2.4s-.5-.4-1.3.4c-.9.7-1.6.8-1.6.3 0-.7-5.8-2.9-10.1-3.7-3.8-.7-9.9-3-9.9-3.8 0-.4-.7-.8-1.6-.8-.8 0-1.3.4-1 .9.3.5-2.2 1.9-5.6 3.1-3.3 1.2-7.2 3.4-8.6 4.9-1.4 1.4-2.2 2-1.8 1.3.4-.6.2-1.2-.3-1.2-.6 0-1.1.4-1.1.9s-2.3 1.7-5 2.7c-2.8 1-5 2.3-5 2.8 0 .6-2.2 2.3-4.8 3.8-7.4 4.4-8.6 5.2-10 7-.7 1-2 1.8-2.8 1.8-.8 0-1.7.7-2 1.5-.4.8-1.2 1.5-2 1.5s-1.4.7-1.4 1.5-.7 1.5-1.5 1.5-2.9 1.3-4.7 3c-1.7 1.6-3.5 3-3.9 3-.5 0-.9.6-.9 1.3 0 .7-1.4 2.1-3.1 3.1-1.7 1-4 3.3-5.1 5.2-1.1 1.8-2.8 3.6-3.9 3.9-1 .4-1.9 1.1-1.9 1.6 0 .6-.4.8-.9.5-.9-.6-2.6 2.2-2.3 3.6.2.8-1.2 1.1-2.4.5-.7-.3-3.3 4.6-2.8 5.4.2.3-.8 1.1-2.1 1.7-1.4.7-2.5 1.6-2.5 2.2 0 .5-.7 1-1.5 1s-1.5.6-1.5 1.3c0 .8-1.1 2-2.5 2.7-1.3.7-2.4 1.6-2.3 1.9.2 1.9-.5 3.3-3.2 6.3-1.6 1.8-3 2.9-3 2.6 0-1.4 2.3-5.8 3-5.8.4 0 1.1-1.6 1.4-3.5.4-1.9 1.8-4.7 3.1-6.1 1.4-1.5 2.7-4.1 3.1-6 .3-1.8.9-3.2 1.3-3.1 1 .3 8.1-7.6 8.1-9.1 0-.7-1.4-1.2-3.5-1.2-1.9 0-3.5.4-3.5.9 0 .7-4 1.4-15 2.6-1.9.2-5.1.7-7 1.2-1.9.4-3.9.8-4.5.8-3.7.5-9.5 2.8-9 3.5.4.6-.4 1-1.7 1-2.3 0-11 3.9-11.6 5.2-.2.4-4.6 2.8-9.8 5.4-6.7 3.4-9.4 5.2-9.4 6.6 0 1-.4 1.8-.9 1.8s-1.6.6-2.3 1.3c-1.8 1.9-7.8 4.7-9.8 4.7-2.3 0-8.9 5.2-9 7 0 .8-2.3 3.1-5.1 5s-5.7 4.3-6.5 5.4c-.8 1.1-1.4 1.7-1.4 1.2 0-.4-.9.2-1.9 1.5l-2 2.4-1.7-2.4c-.9-1.3-2.5-3.1-3.6-4-1-.8-1.8-1.9-1.8-2.4s-.7-1.5-1.5-2.3c-.8-.9-1.5-1.3-1.5-.9 0 .3-.6 0-1.4-.7-.7-.7-1.2-1.8-.9-2.4.5-1.2-5-7.4-6.6-7.4-.5 0-3.4-1.5-6.4-3.3-3.6-2.1-5.3-3.8-5.1-5 .1-.9-.4-1.7-1.2-1.7-.8 0-3.1-.9-5.1-2-2.1-1.1-4.6-2-5.5-2-1 0-1.8-.3-1.8-.8 0-.4-1-.8-2.2-.8-1.3-.1-4.3-.7-6.6-1.3-2.4-.6-7.4-1.4-11-1.7-3.6-.3-7.3-1-8.1-1.7-1.2-.9-1.3-.9-.7 0 .5.9-.2 1.3-2.3 1.3-1.7 0-3.1-.5-3.1-1.1 0-.8-.5-.8-1.5.1s-1.5.9-1.5.1c0-1.5-3.7-1.4-4.3.1-.4 1-.6 1-.6 0-.1-.6-.7-1.2-1.5-1.2s-1.6.6-1.9 1.2c-.3 1-.8.9-2.2-.2-1.2-1-1.6-1-1.1-.2.6.9.1 1.2-1.6 1-1.2-.2-2.9-.7-3.7-1.2-1-.7-1.2-.6-.6.4s.4 1.2-.8.7c-1-.3-1.7-.3-1.7.2s-2.1.9-4.7.9c-2.7.1-5.5.3-6.3.5-4.1.9-6 2-6 3.3 0 .8-.7 1.7-1.5 2-.9.4-1.5 1.9-1.5 3.6 0 3.5-1.5 6.7-4.2 8.9-1.3 1-2.2 3.2-2.5 6.5-.3 2.7-1.2 5.6-1.9 6.5-.8.9-2 3.9-2.6 6.7-.7 2.9-1.5 5.2-1.8 5.2-.3 0-.7 1.5-.8 3.3-.1 1.8-.5 4.4-.8 5.7-2.3 10.4-.9 44.2 2 47.9.8 1.1.8 1.3-.1.7-.7-.4-1.3-.2-1.3.3 0 .6.4 1.1.8 1.1s1.4 2 2.1 4.5c.7 2.5 1.7 4.3 2.1 4 .4-.2 1.3 2.2 1.9 5.5.7 3.3 2 6.8 3 7.8 2.4 2.3 4.1 5.6 4.1 8.1 0 1.2.5 2.1 1.1 2.1.5 0 .8.4.4.9-.3.5.7 2 2.3 3.3 1.5 1.3 3.4 3.5 4.1 5 .8 1.5 1.9 2.5 2.4 2.1.6-.3.7-.1.4.4-.8 1.2 6.5 10.8 8.8 11.7.8.3 1.5 1.1 1.4 1.8 0 1-.2 1-.6 0-.2-.6-.9-.9-1.4-.6-.6.3-1.8-.3-2.8-1.5-1-1.1-2-1.8-2.3-1.6-.3.3-1.1-.1-1.8-1-.7-.8-1.8-1.5-2.6-1.5-.7 0-2-1-2.8-2.2-.9-1.2-1.6-1.8-1.6-1.3s-1.1-.2-2.5-1.7-2.5-3.2-2.5-3.8c0-.5-.3-1-.7-1.1-.5 0-1.6-.2-2.6-.4-.9-.2-1.8 0-1.8.3-.1.4-.3 1.6-.4 2.7-.7 5.6-2.8 13.5-3.6 13.5-.5 0-.9 1.2-.9 2.6 0 2.4-1.5 6.3-2.9 7.4-1 .8-3.1 7.5-3.1 9.7 0 1.2-.6 2.8-1.2 3.5-2.5 2.6-3.8 5.8-3.8 8.8 0 1.8-.6 3.3-1.5 3.6-.8.4-1.5 1.2-1.5 1.8 0 .7-.9 2.2-1.9 3.3-1.1 1.2-2.1 3.4-2.3 5-.2 1.5-.6 3.2-1.1 3.8-.4.5-1.6 2.1-2.7 3.4-1.1 1.3-2.1 2.8-2.1 3.3-.1.4-.2 1.3-.3 1.8 0 .6-.6 1.4-1.3 1.8-.6.4-1.9 2.6-2.8 4.9-.9 2.3-2.3 4.4-3.1 4.7-.8.3-1.4 1.4-1.4 2.3 0 1-1.3 3.3-3 5.1-1.6 1.8-3 3.9-3 4.7 0 .7-.9 1.7-2 2-1.1.3-2 1-2 1.4 0 .8-4.1 6.4-8 11-1.1 1.3-2 3-2 3.8 0 .8-.4 1.2-.9.8-.5-.3-1.3 0-1.6.5-.4.6-1.8 1.5-3.2 2.1-1.3.5-2.2 1.3-1.8 1.8.3.5-.8 1.9-2.5 3.1-1.6 1.2-3.3 3.2-3.6 4.6-.3 1.3-1 2.1-1.5 1.9-.4-.3-1.4.3-2.1 1.5-.7 1.1-1.8 2-2.4 2-.6 0-1.8 1.4-2.6 3.1-.9 1.7-1.9 3-2.4 3-.5-.1-.9.2-1 .6-.1 1.9-2.8 6.2-3.4 5.8-.4-.3-1.3.2-2 1s-1.6 1.2-2.1 1c-.5-.3-1.4.3-2.1 1.5-.7 1.1-1.8 2-2.5 2s-1.3.7-1.3 1.5c0 2.8-.7 3.9-4.7 7.7-1.3 1.2-2.3 2.5-2.3 3 0 .4-.9 1.7-2 2.8-1.1 1.1-2 3-2 4.2 0 2.5-1.3 5.1-2.4 4.8-1.7-.3-5.7 4.1-6.2 6.9-.4 1.8-1.5 3.6-2.5 4.2-1 .5-1.8 1.3-1.7 1.7.1.4-.4 2-1 3.5-.7 1.6-1.2 3.5-1.2 4.3 0 .8-.4 1.4-.8 1.4-.5 0-1.5 1.1-2.2 2.5-.7 1.3-1.6 2.2-2.1 2-.4-.3-1.1.9-1.4 2.7-.4 1.8-1.2 3.9-1.9 4.7-.6.8-1 1.6-.8 1.8.7 1 .1 3.3-.8 2.8-.5-.3-1 .3-1 1.4 0 1.1-.5 2.3-1 2.6-.6.3-1 2.1-1 3.9 0 1.8-.9 4.3-2 5.6-1.1 1.2-1.8 3.2-1.5 4.4.2 1.1.4 2.5.4 2.9.1.5.5.6.9.3.5-.3.9 0 1 .7.6 6.7 3.2 15.8 4.3 15.2.5-.4.9-.3.7.2-.1.4.3 2.6 1 4.8.6 2.2 1.4 5.7 1.7 7.7.3 2.1 1 3.8 1.4 3.8.5 0 1.5 1.5 2.2 3.2.7 1.8 1.9 3.9 2.6 4.6.7.7 1.3 2.5 1.3 3.9 0 1.5 1.1 4.5 2.4 6.7 1.3 2.3 2.6 5.8 3 7.8.4 2.1 1.7 4.9 2.9 6.2 4.8 5.3 5 5.6 3.5 7.3-.8 1.1-.9 1.4-.1 1 .8-.5 1.6.5 2.3 3.2.5 2.1 1.7 4.4 2.5 5.1.8.7 1.7 2.8 2.1 4.9.3 2 1.2 4 1.8 4.6.7.5 2.1 2.9 3.3 5.2 1.1 2.3 2.3 4 2.6 3.7.4-.4 1.6 3.2 2.2 6.6.2 1.3 2.4 4.4 2.5 3.5 0-.6.7.5 1.5 2.2.8 1.8 1.9 3.3 2.5 3.3.5 0 1 .8 1 1.9 0 1 .7 2.4 1.5 3.1.8.7 1.5 1.9 1.5 2.7 0 .8.4 1.2.9.9.5-.3 1.4.7 1.9 2.4.6 1.6 1.6 3.5 2.2 4.2 4 4.9 6.9 9.2 6.5 9.8-.3.4.2 1 1 1.4.8.3 1.5 1.3 1.5 2.1 0 .9.4 1.4.9 1 .5-.3 1.5 1.1 2.1 3 .6 1.9 1.5 3.3 1.9 3 .5-.2 1.3.7 1.9 2 .7 1.4 1.6 2.5 2.2 2.5.5 0 1.6 1.6 2.5 3.6.9 2.2 1.9 3.3 2.6 2.8.7-.4.9-.3.5.4-.3.6.1 1.5.9 2 .9.5 1.7 1.5 1.9 2.3.3 1.9 6.3 7.8 7.2 7 .4-.3.4-.1.1.6-.4.6 0 1.9.9 2.7.8.9 1.2 1.6.8 1.6-.4 0 .5 1.2 2 2.6 1.4 1.5 2.6 3 2.6 3.4 0 .4 1.5 1.8 3.4 3.1s3.2 2.7 3 3.1c-.3.4 0 .8.5.8.6 0 1.1.7 1.1 1.5 0 1.9 10.8 12.7 12 12 1-.6 2.2 2.6 1.8 4.5-.3 1.4 7.2 7.1 8.4 6.4.4-.2 1.3.4 2 1.4.7 1 2.1 2.1 3.1 2.5.9.3 1.7 1.6 1.7 2.7s.5 2 1.1 2c.5 0 .7.5.4 1-.4.6-.3.9.2.8.4-.2 2.3 1.2 4.2 2.9 1.8 1.8 4.2 3.5 5.2 3.8 1.1.4 1.9 1.3 1.9 2.1s1.2 1.9 2.6 2.4c1.4.6 2.3 1.4 1.9 1.9-.3.5.5 1.1 1.7 1.3 1.3.2 2.2.8 2.1 1.4-.1.6 2 2.3 4.8 3.7 5.1 2.8 9.6 6.7 9.1 7.9-.1.5.4.8 1.2.8.8 0 1.6.7 2 1.5.3.8 1.2 1.5 2.1 1.5.8 0 1.5.6 1.5 1.4 0 .8.9 1.8 2 2.1 1.1.3 2 1 2 1.5s2.2 1.8 5 3.1c2.7 1.2 4.7 2.6 4.4 3.1-.3.4.3 1.1 1.3 1.5 1 .3 3.6 1.9 5.8 3.3 4 2.7 4.6 3 6.6 3 .5 0 .7.4.4 1-.3.5.7 1.5 2.2 2.2 1.5.7 3.1 1.7 3.5 2.3.4.5.8.6.8.2 0-.5 1.3.2 2.8 1.5 1.5 1.2 4.8 3.2 7.2 4.3 2.5 1.1 4.8 2.3 5.1 2.8.3.5 1.4.9 2.3 1.1 1 .1 2.1.7 2.4 1.3.4.6 2.7 2.1 5.2 3.3 2.5 1.2 4.7 2.6 5 3 .3.4 2.1 1.5 4 2.5s3.8 2.2 4.1 2.7c.3.5 1.2 1.1 2 1.2.8.2 2.1.5 2.9.8.8.3 3.4 1.1 5.7 1.8 2.3.7 4 1.7 3.7 2.1-.3.5.3.9 1.3.9 1.1 0 2.3.4 2.8.8.6.5 4.2 1.9 8.2 3.2 3.9 1.3 6.9 2.8 6.7 3.2-.3.4-.2.8.3.9 1.9.2 4.2.8 11.5 3.3 4.2 1.4 8.3 2.6 9.1 2.6.8 0 2 .6 2.6 1.4.7.8 2.7 1.7 4.6 2 1.9.4 3.7 1.2 4.1 1.8.5.7.2.8-.7.3-1-.5-1.1-.5-.4.3 2.1 2.2 18 5.8 34.5 7.8 2.5.3 8.1 1.2 12.6 2 4.4.8 9.6 1.4 11.5 1.4 2.4 0 3 .3 2 .9-.8.5-2 .7-2.8.4-.7-.3-1.3.1-1.3.8 0 .7.3.9.7.6.3-.4 1.1-.3 1.7.2.9.8 13.4 2.7 29.8 4.6 23.3 2.7 82.4 2.7 103.3 0 1.7-.2 5.5-.7 8.5-1 3-.3 8.2-1 11.5-1.6 3.3-.6 7-1.2 8.3-1.4 1.2-.1 2.6-.6 3-1 .4-.4-.2-.5-1.2-.3-1 .1-2.1-.2-2.3-.7-.2-.6.5-1.1 1.4-1.1 1.8-.1 6.7-.9 11.3-1.9 1.4-.3 5.9-1 10-1.5 14-1.8 21.4-3.1 27-4.6 3-.8 6.2-1.7 7-1.9.8-.2 1.6-.4 1.8-.5.1-.2.6-.3 1-.4.5 0 1.6-.9 2.6-1.9 1-.9 2.3-1.7 3-1.7.6 0 1.7-.5 2.4-1.2.6-.6 1.7-1.3 2.4-1.4 3.4-.5 20.3-6.7 20.9-7.5.3-.5 1.4-1.1 2.5-1.3 1.1-.2 3.6-1.1 5.6-1.9 2-.9 3.9-1.3 4.2-.9.3.3.6 0 .6-.6 0-.7.9-1.2 2-1.2s2.9-.9 4-2 2.1-1.9 2.3-1.9c.1.1 1.3-.1 2.7-.5 7.7-2.1 10-3 10-4.1 0-.6.6-1.2 1.4-1.2.8 0 5.7-2.6 11-5.8 8.1-4.9 9.6-6.2 9.7-8.4.1-4 .9-7.5 1.8-8.1.8-.5 4.1-12.5 4.4-16 .1-1 .5-1.6.9-1.4.4.3.9-.2.9-1 .1-.9.2-1.9.4-2.4.1-.4.5-2.4.9-4.4.5-2.1 1.2-3.8 1.6-3.8.4 0 1-1 1.3-2.3 2.1-8.7 2.9-11.2 3.5-11.7.4-.3 1.3-2.3 2.1-4.5s1.7-4.2 2.2-4.5c.4-.3 1-2.4 1.2-4.6.5-4.6 2.5-8.4 4.4-8.4.7 0 1.5-1.7 1.8-3.8 1.1-7 1.6-8.3 2.5-7.7.6.3 1-.1 1-.9 0-.9.9-2.5 2-3.6s2-3.3 2-4.9c0-1.6.7-3.6 1.5-4.5.8-.8 1.5-2 1.5-2.7 0-.7.3-.9.7-.6.9 1 3.3-2.8 3.9-6.1.3-1.5 1.2-3.1 2-3.5.8-.4 1.4-1.4 1.4-2.1 0-.7.9-2.3 2-3.6 1.1-1.3 2-2.7 2-3.1 0-.4.3-1.4.6-2.3 1-2.7-1-1.8-5.7 2.4-2.4 2.2-4.7 4-5.1 4-.3 0-3.6 2.9-7.3 6.5-3.6 3.6-7.4 6.5-8.3 6.5-.9 0-2.8.9-4.2 2-1.4 1.1-3.3 2-4.2 2-1 0-1.8.8-1.8 1.7 0 2-10.9 10-16.2 11.9-1 .3-1.8 1.1-1.8 1.6s-.4.7-.8.4c-1-.6-2.2.3-4.2 2.8-.9 1.2-1 1.7-.2 1.2.6-.4 1.2-.3 1.2.2s-1.2 1.5-2.7 2.2c-1.6.8-3.4 1.9-4.1 2.4-.8.6-2.4 1.2-3.5 1.3-1.6.3-1.2-.3 1.6-2.2 2-1.4 3.7-3.2 3.7-4 0-1.8 5.2-7.5 6.9-7.5.6 0 1.1-.5 1.1-1 0-.6.6-1 1.3-1 1.7 0 7.4-5.5 8.2-8 .3-1.1 1.1-2 1.6-2 .6 0 3-1.4 5.5-3 2.4-1.7 4.4-2.8 4.4-2.5 0 .3.6 0 1.4-.7.8-.7 1.3-1.5 1.3-1.8-.2-.5 4-5.6 6.1-7.4.7-.6 3.3-2.9 5.7-5.1 2.5-2.2 6.2-5.6 8.4-7.5 2.2-1.9 3.7-3.8 3.5-4.2-.3-.4.7-1 2.1-1.4 1.4-.3 2.5-1 2.5-1.6 0-.5.6-.6 1.3-.2.6.4.9.3.4-.1-.9-1 3.1-5.5 5-5.5.7 0 1.2-.3 1.1-.8-.3-1.5 1.4-4.2 2.7-4.2.7 0 1.8-1.4 2.4-3.1.6-1.7 1.5-2.8 2.1-2.4.5.3 1 .1 1-.5s1.6-2.6 3.5-4.4c1.9-1.9 3.5-3.8 3.5-4.2 0-.7 4.3-5 5.7-5.5.5-.2 1.9-2.1 3.2-4.2 1.2-2 2.9-3.7 3.7-3.7 1.3 0 1.8-1.2 1.5-3.2 0-.5.2-.7.7-.5 1.1.3 7.2-6.4 7.2-8.1 0-.8 1-2.5 2.3-3.8 3.4-3.6 5.4-6 7.2-8.8 1-1.4 2.1-2.3 2.6-2.1.4.3 1.1-1 1.5-3 .3-1.9 1.1-3.9 1.8-4.3 1.7-1.1 4.6-5.9 4.6-7.7 0-1 .5-1.3 1.3-.9 1 .6 1 .4 0-.7-.7-.7-1.3-1.8-1.3-2.4 0-.5.5-.3 1 .5.8 1.3 1 1.2 1-.3 0-.9 1.4-3.1 3-4.9 1.7-1.7 3-4 3.1-5.2 0-1.2.3-3 .5-4.1.3-1.1.6-2.6.6-3.3.1-.6.5-1.2.9-1.2 1.1 0 3.9-9.6 3.9-13.2 0-1.5.4-2.8.9-2.8s1.3-1.5 1.7-3.2c1.1-4.5 1.2-4.6 1.3-10.6 0-2.9.5-5.1 1-4.8.9.6 1.6-2.5 2.5-9.9.2-1.7.7-10.1 1.1-18.8.4-8.6 1.1-15.7 1.6-15.7s.9-2.9.9-6.5-.4-6.5-.9-6.5-1.2-8-1.6-17.8c-.4-9.7-.8-19.7-1-22.2-.9-12.9-1.9-21-2.5-21-1.6 0-1.8-77.9-.2-78.9.9-.6 2-5.9 2.8-14.1 1-9.8 1.5-12.3 2.9-13.6.8-.8 1.9-4.1 2.6-7.4.6-3.3 1.5-6 1.9-6 .4 0 1-1.9 1.3-4.3 1-7.2 1.7-9.9 3.2-11.4.8-.8 1.5-2.2 1.6-3.1 0-.9.2-2.6.4-3.7s.6-4.1 1-6.8c.3-2.6 1-4.7 1.6-4.7.5 0 .9-.5.9-1.1 0-.5-.6-.7-1.2-.3-.7.4-.5-.1.4-1.2.9-1 1.6-2.1 1.6-2.4-.3-1.4 1.5-8.6 2.2-9 .5-.3 1.1-3.2 1.5-6.5.9-9.6 2.7-18.9 3.8-20.3.5-.7.7-1.5.3-1.9-.3-.3-.6 0-.6.7s-.3 1-.6.7c-.4-.4-.2-1.2.3-1.9 1.6-2 3.2-13 3.8-25.8.4-7.3 1-11.7 1.8-12.2.9-.5 1.2-7.4 1.2-26.3 0-21.7-.2-25.7-1.5-26.5-1.3-.8-1.5-5.1-1.6-28.2 0-23.5-.3-27.8-1.7-31.1-1-2-2.1-3.7-2.6-3.7s-1.5-1.6-2.1-3.5c-.6-1.9-1.5-3.4-1.9-3.2-.5.1-2.3-1.1-4.2-2.7-1.8-1.6-6-4.3-9.3-5.9-3.4-1.7-6.3-3.4-6.6-3.7-.3-.4-1.5-1.2-2.7-1.9-1.3-.6-2.2-1.7-2-2.3.2-1.2-9.9-6.8-12.4-6.8-.8 0-1.9-.3-2.3-.7-.3-.4-1.5-.8-2.5-1-3.6-.5-7.2-2.3-6.6-3.3.3-.5-.1-1-.9-1s-1.8-.5-2.2-1.2c-.4-.6-.3-.8.4-.4.6.3 1.4.1 1.8-.5.4-.7.3-.9-.3-.6-.6.4-2.7-.3-4.9-1.3-2.1-1.1-4.6-2-5.6-2s-1.8-.4-1.8-.8c0-1-20.5-1.4-21.4-.5zM775.2 18c3.1 1.1 5.5 2.6 5.9 3.8.4 1.1 1.9 2.2 3.4 2.6 1.4.4 2.3 1.1 2 1.6-.3.6.1 1 1 1s2.1 1.3 2.6 3c.6 1.6 1.5 3 2 3 1.3 0 1.1 11.8-.2 12.2-.6.2-1.5 2.5-2 5.1-.5 2.7-1.5 5.5-2.4 6.3-.8.9-1.5 2.2-1.5 3 0 1.9-5.6 7.4-7.5 7.4-.8 0-1.5.4-1.5 1 0 1.4-4.3 1.2-5.9-.3-1.1-1-1.3-1-.7 0 .5.8.1 1.3-.9 1.3-.9 0-1.4-.4-1.1-.9.5-.8-5.7-2.9-11.4-3.8-1.4-.2-9.7-.5-18.4-.6-11.4-.2-16.1-.6-16.4-1.5-.2-.7-1-1.2-1.8-1.2s-1.3-.3-1.3-.8c.3-1.7-.2-3.5-.7-2.9-1.2 1.1-5.7-3.3-7.3-7.1-4.1-9.5-.3-12.8 16.7-14.6 1.3-.2 2.7-.7 3-1.2.4-.6 2.6-1.6 5-2.2 2.3-.7 4.2-1.7 4.2-2.3 0-.6.4-.8.9-.4.5.3 1.8-.6 2.9-2 1.1-1.4 2.3-2.5 2.7-2.5 1 0 3.5-2.7 3.5-3.8 0-.5 2.1-1.9 4.7-3 6-2.6 13.6-2.7 20.5-.2zm41.2 25.2c-.3.4.8 1 2.3 1.4 1.5.3 3.5.8 4.3 1.1.8.4 1.8.5 2.3.5.4-.1.7.5.7 1.3s1.2 2.3 2.8 3.3c1.5.9 2.8 2.4 2.9 3.2.5 3.1 2.1 8.5 2.3 7.5.2-.6.6 1 .9 3.5.7 4.9.3 9.2-.8 8.6-.4-.3-.8.5-.8 1.7-.2 1.7 0 1.9.7.7.7-1.1.9-.8.8 1.2-.1 1.5-.6 2.4-1 2.2-.4-.3-.8 4.7-.8 11 0 7.1.4 11.6 1 11.6s1 .5 1 1.1c0 .5-.4.7-1 .4-.5-.3-1-.1-1 .4 0 .6.4 1.1.9 1.1 1.3 0 2.3 6.5 1.5 10.5-.3 1.9-1 3.2-1.5 2.9-.5-.3-1.7-.1-2.6.5-2.1 1.1-5.3-.3-5.3-2.3 0-.8-.7-1.7-1.6-2-.8-.3-1.2-1-.9-1.6.3-.5.2-1-.3-1s-1.2-1.4-1.5-3c-.4-1.8-1.3-3-2.2-3-.9 0-1.5-.9-1.5-2.3 0-1.2-1-3.4-2.3-4.8-2.1-2.5-6.7-8.3-7.7-9.9-.3-.4-1.5-1-2.7-1.4-1.3-.4-2.3-1.2-2.3-1.7s-.4-.9-.9-.9c-1.6 0-6-4.5-7-7.1-1.1-3.1-1.2-9.9 0-12 .5-.9 1-3 1.1-4.7.1-1.7.5-2.9.9-2.6.4.2 1-.7 1.3-2 .3-1.4 1.2-3.1 1.9-3.8.8-.7 2-2.6 2.8-4.3.9-1.9 2.5-3.2 4.7-3.7 1.8-.5 3.1-1.2 2.8-1.6-.2-.4 1.1-.8 2.9-.8 1.8 0 3.1.4 2.9.8zM581.7 75.6c-.3.3-1.2.4-1.9.1-.8-.3-.5-.6.6-.6 1.1-.1 1.7.2 1.3.5zm-110.9 28.6c.7 1 2.2 1.8 3.3 1.8 1.1 0 3.4.8 5.2 1.7 1.8.9 3.6 1.6 4.1 1.5.4-.2 1.9.4 3.2 1.3 1.3.8 3.7 1.5 5.4 1.5 1.7 0 2.9.4 2.5.9-.3.6.3 1 1.2 1 3.5 0 17.3 2.4 17.3 3 0 1 7.3.7 8.9-.3.9-.6 1.2-.5.7.2-.4.7.6 1 2.6 1 4.8 0 6.2.1 5.6.7-1.2 1.2-10.2 2-21.3 1.8-13.4-.2-16.9-.6-19-2.3-.8-.7-1.5-.9-1.5-.4s-.4.4-.8-.1c-1.1-1.5-5-3.5-6.7-3.5-.9 0-1.3-.5-1-1 .3-.6 0-1-.8-1-.7 0-2.4-1-3.7-2.3-1.4-1.2-2.5-2-2.5-1.8 0 1.1-5.5-3.3-7-5.5-1.6-2.5-1.6-2.5.7-1.3 1.3.7 2.9 2 3.6 3.1zm7.8 20.3c2.7 1.4 5.5 2.5 6.2 2.5.6 0 1.2.8 1.2 1.8 0 1.4 1.3 2.1 5.1 3 2.8.7 5.5 1 5.9.7.5-.3 1.2 0 1.5.6.4.5 1.3.8 2.1.5 1.9-.7 1.8 3.1-.1 5-.8.9-1.5 3-1.5 4.9 0 6.6-11.4 11.8-19.4 8.9-2.3-.8-4.5-1.6-5.1-1.7-1.7-.3-4.5-5-4.5-7.5 0-1.2-.4-2.2-.8-2.2-1.8 0-3.1-4.8-2.2-8 .5-1.8.9-3.5.8-3.9-.2-2.2.3-4.1 1.1-3.6.5.3 1.2-.4 1.6-1.5.8-2.6 2.1-2.5 8.1.5zM695 153.3c7.2 1.4 13.5 5.1 12.3 7.1-.4.6.2.4 1.2-.4s1.6-1 1.2-.4c-.7 1.3 10.8 7.4 14 7.4 1.1 0 2.4.7 2.7 1.6.3.8 1 1.2 1.6.9.6-.3 1.3 0 1.6.8.3.9 1.7 1.8 3 2.1 1.4.4 2.3 1 2 1.4-.2.4 1.5 1.6 3.7 2.7 2.3 1.1 4.6 2.5 5 3.2.4.7 1.4 1.3 2.1 1.3.7 0 2.1.9 3.1 2s2.1 1.7 2.6 1.5c.4-.3 1.1.1 1.6.8.4.8 2.5 2 4.5 2.6 2.1.7 4 1.7 4.3 2.1.3.5 2.5 1.8 4.8 2.9 2.3 1.1 5 2.5 6 3.1 4.1 2.4 5.3 3.1 7.5 4 1.2.5 2.2 1.4 2.2 2 0 .5.7 1 1.5 1 .9 0 1.8.7 2.1 1.5.4.8 1.3 1.5 2 1.5.8 0 1.9 1.1 2.3 2.4.5 1.3 1.6 2.6 2.3 2.9.8.2 2 2.4 2.7 4.8.7 2.4 1.7 5.2 2.2 6.1.5 1 .9 2.6.9 3.6s.3 2.2.8 2.6c.7.7.8 1.1 1.1 3.7 0 .5.5.8.9.5.5-.3.9 2 1 5.2 0 3.1-.3 5.1-.7 4.4-.7-1.1-3.8 10.3-3.3 12.1.1.5-.2.6-.8.2-.5-.3-1 .2-1 1.3 0 1-1.1 3.1-2.5 4.6-1.3 1.4-2.8 4.1-3.3 6-.6 1.9-1.8 4.3-2.8 5.4-4.2 4.6-5.9 7.2-5.9 8.9.1 1.8-.7 2.7-8.9 9.8-2.6 2.2-4.6 4.8-4.6 5.9 0 1.1-1.5 3.4-3.2 5.1-4.1 3.9-8.4 9.6-8.1 10.7.2.4-.4.8-1.2.8-.9 0-1.5.9-1.5 2.2-.1 2.2-3 7.2-3 5.2-.1-1.7-3 5.8-3 7.7 0 1-.6 2.2-1.3 2.6-.8.4-2.2 3.4-3.2 6.5-1 3.2-2.2 5.5-2.6 5.2-.5-.3-.9.6-.9 1.9 0 1.3-1.1 4-2.5 6-1.3 2-3 5.5-3.8 7.7-.7 2.2-1.6 3.8-2 3.4-.3-.3-.9 1.1-1.3 3.1-.3 2-1.3 3.9-2 4.2-1.2.4-3.1 6.6-2.6 8.4 0 .4-.8 1.5-1.8 2.4-1.1 1-2 2.5-2 3.4 0 .9-.7 2.5-1.5 3.5-.8 1.1-1.5 3.6-1.6 5.5 0 2-.3 3-.6 2.2-.7-1.7-3.3 4.1-3.3 7.3 0 1.5-.3 1.7-.9.7-.6-.9-1.1.2-1.5 3.3-.4 2.5-1.3 5.2-2.1 6-.8.7-1.1 1.6-.8 2 .4.3.2.6-.4.6-.6 0-1.3 1.2-1.6 2.7-1 5.2-3.2 11.8-4 12.4-.5.4-1.1 2.4-1.4 4.5-.3 2.2-1.4 4.7-2.4 5.7-1.1 1-1.9 3.1-1.9 4.8 0 3.9-2 11.9-3 11.9-.7 0-1.6 2.6-2.6 7.4-.2 1.1-.7 2.2-1.2 2.5-1.5 1-3.5 15.3-3.9 28.1-.3 6.9-.9 12.7-1.3 13-.5.3-1.1 5.5-1.5 11.5-.6 11.5-1.8 18.9-4 24-.7 1.7-1.6 4.5-1.9 6.3-.4 1.8-1.1 3-1.5 2.7-.8-.4-1.1 2.6-1.5 18-.4 12.1-2.3 21.6-4.7 23.3-1 .7-1.9 1.8-1.9 2.4 0 1.1-4.1 4.6-5.1 4.4-.3 0-1.2.4-2 1-3.7 3.1-21 2.2-24.9-1.2-.8-.7-2.7-1.5-4.2-1.9-1.5-.4-2.9-1.3-3.2-2.2-.3-.8-1-1.2-1.5-.9-.5.4-1.5 0-2.3-.7-.7-.7-1.6-1.4-2.1-1.4-3.5-.3-8.4-1.7-9.6-2.6-.7-.6-1.8-1.2-2.5-1.3-2.8-.5-6.6-2.4-6.6-3.4 0-.6-.5-.8-1-.5-.6.3-1.3-.1-1.6-.9-.3-.9-1.2-1.6-2-1.6s-1.4-.4-1.4-.9-1.4-1.3-3.2-1.6c-1.7-.4-5.1-1.8-7.6-3.1-2.4-1.3-4.7-2.3-5-2.2-1 .3-8.6-3.4-9.4-4.6-.4-.6-.4-1.4-.2-1.8.3-.4 0-.9-.5-.9-1.7-.2-2.3-.4-6.6-2.4-2.2-1-5.8-2.2-8-2.6-6.6-1.2-8.6-1.8-9.9-2.8-.6-.5-1.3-.9-1.6-.9-2.2-.1-6-2.5-6-3.7 0-1.9-1.9-3.8-4-4.3-2-.5-8.9-8.1-9.5-10.7-1.8-6.6-2.9-9.4-3.6-8.9-1.3.8-1.1-1 .4-2.5 1-1.1 1-1.3 0-.7-1.5.8-1.6-.6-1.4-14.3 0-6.4.5-9.7 1.3-10.3 1-.6 1-.8.1-.8-.7 0-1.3-.9-1.3-2.1 0-1.1.4-1.8.8-1.5.5.3.9-.1.9-.9s-.4-1.2-.9-.9c-.4.3-.8-.2-.8-1.1 0-.9.5-1.3 1-1 .6.4 1-1.3 1-4.3 0-2.7.4-9.5 1-15.3.5-5.7 1.1-16.4 1.4-23.8.2-7.8.8-13.6 1.4-14 .6-.4 1.4-6 1.7-12.6.8-16.3 2.5-31.9 3.5-32.5.5-.3 1-4.2 1.1-8.6.2-9.3 1.8-20.7 3.1-21.5.4-.3 1-2.7 1.2-5.5.3-2.7.5-4.9.6-4.9.2 0 .3-.7 1.5-11.5.4-3.6 1.3-7.1 1.9-7.9.7-1 .8-1.3 0-.8-.6.3-1.1 0-1.1-.8s.4-1.2.9-.9c.4.3.9-.3.9-1.3.1-1 .2-2.3.4-2.8.1-.6.3-2.2.3-3.7.1-1.5.9-3.4 1.8-4.3.9-.8 1.3-2.2 1-3-.3-.8-.2-1.6.3-1.9.4-.3.8-2.6 1-5.1.1-2.5.6-5.8 1.1-7.1.6-1.4 1-3.8 1-5.4 0-1.6.3-3 .8-3.2 1.4-.6 4.2-6.7 4.2-9.3 0-1.5.9-3.8 2-5.2 1.1-1.4 2-3.2 2-4 0-.8.4-1.2.9-.8.5.3 1.2-.3 1.6-1.4.8-2.6 1.6-6.3 1.7-7.9.1-.6.7-1.2 1.5-1.2.7 0 1.3-.4 1.3-.8 0-.5 1.3-2.2 2.9-3.8 1.6-1.7 3.3-4.2 3.6-5.6.4-1.5 1.3-2.9 2.1-3.2.8-.3 1.4-1.4 1.4-2.5 0-1 1.1-2.6 2.5-3.5 1.4-.9 2.5-2.3 2.5-3.1 0-.8.6-1.5 1.4-1.5.8 0 1.7-.8 2-1.8.3-.9 2.1-3.5 4.1-5.7 1.9-2.2 3.5-4.6 3.5-5.4 0-.8.3-1.2.6-.9.7.7 5.4-3.6 5.4-4.9 0-.6.7-1.6 1.5-2.3.8-.7 1.5-2.2 1.5-3.4 0-1.7.2-1.8 1-.6.8 1.3 1 1.2 1-.3 0-.9.5-1.7 1-1.7.6 0 1-.7 1-1.6 0-.8.4-1.3.9-1 .5.3 1.7-.7 2.7-2.2.9-1.5 2.7-3.5 3.8-4.5 1.2-1 2.1-2.4 2.1-3 0-.7.7-1.2 1.5-1.2s2-1.1 2.7-2.5c.7-1.4 1.3-2.2 1.3-1.8 0 .4 3.2-2.4 7.1-6.3 4-3.8 7.3-6.9 7.5-6.9.7 0 5.2-4.9 5.7-6.4.4-.9 1.4-1.6 2.4-1.6 1.5 0 1.6-.2.3-1-.9-.6-1-1-.3-1s4.1-2 7.6-4.5c3.6-2.5 7-4.5 7.6-4.5.6 0 1.1-.7 1.1-1.6 0-.8.5-1.2 1-.9.6.3 1 .2 1-.3 0-1.3 7.3-4.2 12.4-4.9 2.3-.3 4.3-.7 4.6-1 .5-.5 12.4.3 16 1zM183 416c0 .5-.4 1-1 1-.5 0-1-.5-1-1 0-.6.5-1 1-1 .6 0 1 .4 1 1zm-.2 3.7c0 .5.6 2.5 1.5 4.5 1 2.1 1.7 4.2 1.7 4.8 0 .5.5 1 1 1 .6 0 1 1.6 1 3.5 0 3.5.6 4.7 4.4 8.5 1 1 2.1 3.8 2.3 6.2.3 2.3 1.3 5 2.3 5.8.9.8 2.1 2.6 2.5 4 .4 1.4 1 2.7 1.4 3 .3.3 1.5 2.3 2.6 4.5s2.7 4.5 3.5 5.2c1.5 1.1 1.6 1.5 1.9 4.9 0 .8.4 1.3.9 1 .4-.2 1.6 1.6 2.6 4s2.2 4.1 2.7 3.8c.5-.3.9.3.9 1.4 0 1 .9 2.7 1.9 3.9 2.1 2.2 5.1 7.7 5.1 9.2 0 .6 1 2.1 2.3 3.5 3.2 3.5 4.1 4.7 5.5 7.9.6 1.5 1.7 2.5 2.2 2.2.6-.3 1 0 1 .8s.7 2 1.5 2.7c.8.7 1.5 2.1 1.5 3.1 0 1.1.4 1.9.9 1.9s1.4 1.3 2.1 3c.7 1.6 2 3.8 2.9 4.9 3.9 4.7 4.7 5.9 7 10.6 1.4 2.8 4 6.5 5.8 8.4 2.1 2.1 3.3 4.4 3.3 6.1 0 2 1.4 4 5 7.3 2.8 2.5 5 5.1 5 5.7 0 .6.5.8 1 .5.6-.3 1-.2 1 .4 0 .5-.5 1.1-1.2 1.3-.8.3-.4 1.2 1 2.6 1.2 1.2 2.2 2.5 2.2 2.9 0 .5 1.6 2.5 3.5 4.5s3.5 4.5 3.5 5.5c0 1.8 3.9 7.6 4 5.9 0-1.7 2.9 2.8 3 4.6 0 .9.6 2.1 1.3 2.5.7.4 1.9 2.3 2.7 4.1.9 2.4 1.5 3 2.1 2 .6-.9.9-.7.9.8 0 2.6 2.2 7 4.2 8.7.8.7 2.1 2.8 2.9 4.7.7 1.9 2 4.2 2.9 5.1 3.1 3.6 4 4.8 4 5.9 0 1.3 3 7.3 4 8 1.2.8 7 13 7 14.6 0 .8.6 1.7 1.4 2 .8.3 1.8 2 2.1 3.7.6 3.1 2.5 7.7 3.5 8.7 1.2 1.1 3 6.3 3 8.5 0 1.4.4 2.5 1 2.5.5 0 1.3 1.2 1.6 2.7.4 1.6 1.1 3.3 1.6 4 .6.7.8 1.8.6 2.5-.3.7-1.1-.2-1.8-1.9-.8-1.7-1.8-2.9-2.2-2.7-.4.3-.8-.5-.9-1.8-.1-2.8-2.7-9.9-2.9-7.8-.2 1.8-2-2.2-2.9-6.5-.4-1.7-1.3-3-2.1-3-.9 0-1.8-1.6-2.3-4.3-.5-2.4-1.5-4.6-2.3-4.9-.8-.3-1.4-1.1-1.4-1.9 0-.8-1-2.4-2.2-3.7-1.3-1.2-2.3-2.4-2.4-2.7-.4-2.4-3.2-6.9-3.9-6.3-.4.5-.5.3-.2-.3.4-.7-.7-2.6-2.3-4.4-1.7-1.8-3-4.1-3-5.1s-.4-1.9-1-1.9c-.5 0-1-.9-1-2.1 0-1.1-.4-1.8-.9-1.5-.4.3-1.7-1-2.7-2.9-1-1.9-2.2-3.5-2.6-3.5-.5 0-.8-.7-.8-1.5s-1.1-2.2-2.5-3.1c-1.4-.9-2.5-2.3-2.5-3 0-2-2.2-5.6-4.2-7.2-1-.7-2-2.7-2.3-4.6-.4-2.1-1.6-3.8-3.5-5-2.6-1.5-6-6.5-6-8.8 0-.5-1.3-2.2-3-3.8-1.6-1.6-3-3.2-3-3.6 0-1-3.7-5.4-4.2-4.9-.2.2-.4-.4-.5-1.3-.3-3.3-2.3-7.3-4-7.9-1-.4-2.2-1.3-2.6-2-.5-.7-1.2-1.1-1.7-.8-.5.3-1.2-1.1-1.6-3.2-.8-4.4-1.9-6.9-4.5-9.7-1.1-1.1-1.9-2.7-1.9-3.5 0-.9-.9-2.2-2-2.9-1.2-.7-1.8-1.7-1.5-2.2.3-.6.1-1-.4-1-.6 0-1.1-.7-1.1-1.5s-.4-1.5-1-1.5c-.5 0-1-.5-1-1 0-.6-1.3-2.4-2.9-4.1-1.7-1.7-3.3-4.4-3.6-6-.4-1.6-1.1-2.9-1.6-2.9s-.9-.6-.9-1.4c0-.7-.7-1.9-1.5-2.6-.8-.7-1.3-1.5-1-1.9.2-.4-.5-1.5-1.6-2.4-1-.9-1.9-2.4-1.9-3.2 0-.8-1.1-2.5-2.4-3.6-1.3-1.2-2.7-3.2-3-4.5-.6-2.1-4-8-6.4-10.9-.5-.6-1.2-2.2-1.5-3.6-.4-1.4-1.6-3.6-2.7-4.9-1.1-1.3-2.6-4.2-3.2-6.4-.7-2.3-1.8-4.5-2.5-4.9-.7-.4-1.3-1.4-1.3-2.2 0-2.1-2.2-6.5-3-6-.4.3-1-1.3-1.4-3.4-.3-2.2-1.2-4.6-2-5.4-.8-.7-2.2-4.2-3.2-7.8-1-3.5-2.2-6.7-2.7-7-.5-.4-1-1.9-1.1-3.5-.3-4-2.7-11.4-3.8-11.4-.4 0-.8-.9-.8-2s.5-2 1-2c.6 0 .9.3.8.7zm153.5 268.6c.3.8-.1 1.4-.8 1.4-.7 0-1.1-.6-.8-1.4.3-.7.6-1.3.8-1.3.2 0 .5.6.8 1.3z"/><path d="M664.8 160.9c-4.4 2.8-9.8 8.5-9.8 10.3 0 1-.4 1.8-1 1.8-.5 0-1 .8-1 1.8s-.3 2.2-.7 2.6c-.5.4-.8 1.1-.8 1.4-.2 2-1.8 5.2-2.6 5.2-.5 0-.9.8-.9 1.8 0 3.1-3.1 11.2-4.3 11.2-.7 0-.5.5.3 1s1 1 .4 1c-1.3 0-3.4 7.3-3.4 11.5 0 1.8-.4 2.4-1.2 1.9-.9-.5-.9-.2.1.9.7.9.9 1.7.4 1.7-.9 0-4 15.6-4.1 20.8-.1 1.8.2 2 1.6 1.3.9-.5 2.5-1.8 3.4-2.8.9-1 2.2-2.3 2.7-2.8 5.3-5.3 10.9-11.7 12-13.8.8-1.5 1.8-2.7 2.2-2.7.5 0 1.6-1.4 2.5-3.2 1.7-3.4 2.7-4.7 6.2-8.4 1.2-1.4 2.2-3.4 2.2-4.4 0-1.1.5-2 1-2 .6 0 1-.7 1-1.5s.5-1.5 1-1.5c.6 0 1 .9 1 2s-.4 2-.8 2c-1.2 0-3.2 9.3-3.2 14.6 0 2.4-.4 4.4-.9 4.4s-1.1 1.6-1.3 3.5c-.4 3.9 1 4.6 3.2 1.6.7-1.1 1.7-1.8 2.2-1.5.4.3.8-.4.8-1.6 0-1.1.7-2.3 1.5-2.6.8-.4 1.5-1.1 1.5-1.8 0-1.2 4.3-5.4 4.7-4.6.4 1 3.2-3.6 3.3-5.3 0-1 .7-2 1.5-2.3 1.6-.7 4.5-5.8 4.5-8.3.1-1.3.4-1.1 1.9.6 1 1.1 2.9 2.3 4.2 2.5 1.4.2 2.3.9 2.1 1.7-.3 1.2 0 1.2 1.4 0 1.1-.8 1.5-.9 1.1-.2-.5.8.1 1.5 1.7 1.9 1.4.3 3 1.2 3.7 2 .6.8 2 1.4 3.1 1.4 1 0 1.7.4 1.4.8-.2.4 2.8 2.3 6.7 4.2 4 1.9 7.7 4.1 8.4 5 .6.8 1.5 1.5 2 1.6 1.5.1 4.8 1.8 8.3 4.2 1.9 1.3 4.9 3 6.7 3.9 1.8.8 3.3 2 3.3 2.5s.5.6 1 .3c.6-.3 1-.2 1 .3s1.4 1.2 3.2 1.6c1.7.3 2.9.9 2.5 1.2-.3.3.4 1.5 1.5 2.6 1.8 1.8 1.9 2.8 1.3 8.7-.4 3.6-1.1 7-1.6 7.5-.5.6-.9 2.4-.9 4-.1 2.9-2.8 9.3-3 7.1-.2-1.8-2.8 5.9-2.9 8.5 0 2.5 0 2.5 2.9-.8 1.7-1.8 3-3.8 3-4.5 0-.6 1.6-2.3 3.6-3.7 3.1-2.2 5.5-5.6 5.9-8.5 0-.6.6-.9 1.2-.8.6.2 1.7-1.3 2.3-3.2.6-1.9 1.5-3.5 1.9-3.5.4 0 1.2-1 1.8-2.3l1-2.2.7 2.2c.4 1.3 1.2 2.3 1.7 2.3s.9 2.2.9 5c0 2.7-.3 5-.7 5-.5 0-1.6 3.6-2.7 8-1 4.4-2.2 8-2.6 8-.4 0-1 1.7-1.4 3.9-.3 2.1-1.3 4.4-2.1 5.1-.8.7-1.5 2-1.5 3 0 2-3.9 11.1-4 9.5-.1-1-2.2 3.2-2.5 5-.5 3.3-1.8 6.4-2.6 5.9-.5-.3-.9.4-.9 1.5s-.4 2.3-1 2.6c-.5.3-1 1.4-.9 2.3 0 1.4.2 1.4 1-.3.6-1.1 2.8-3.3 5-4.9 2.1-1.7 4-3.8 4-4.8.1-1 .2-2.1.3-2.6.2-1 6.6-7.2 7.5-7.2 2 0 6.1-4.8 6.1-7.2 0-1.6.9-3.2 2.5-4.2 1.4-.9 2.7-2.7 3.1-4.1.3-1.4 1-2.3 1.4-2 .5.3 1.6-1.5 2.5-3.9 1-2.5 2.3-4.7 3.1-5 .8-.3 1.4-1.2 1.4-2s.7-1.9 1.5-2.4c.9-.4 1.8-2.1 2.1-3.7.3-1.5.8-3.5 1.3-4.4.4-.9.9-3.4 1-5.6.2-2.2.6-4.5.9-5 1-1.6 1.1-3.6.1-2.9-.5.3-.9-.6-.9-2s0-2.9-.1-3.4c0-.8-2.9-2.6-4.2-2.7-.4 0-1.2-.6-1.7-1.4-.4-.8-1.9-1.6-3.2-1.7-3.3-.4-7.9.6-7.3 1.6.3.4-.4 1-1.4 1.3-1.3.3-1.8-.1-1.8-1.7-.1-7.5-.2-7.7-4.6-9.6-4-1.8-8.4-1.8-9.7.1-.3.4-1.1.1-1.8-.7-1-1.1-1-1.4 0-1.4.8 0 .9-.3.3-.8-.5-.4-1.5-1.6-2.1-2.7-2-3.7-5.8-5.1-10.3-3.9l-4.1 1.1v-3.1c0-1.7-.7-4.2-1.6-5.5-1.5-2.1-2.2-2.3-7-1.8-4.9.5-5.4.4-5.4-1.4 0-1.1-.7-2.2-1.6-2.6-.8-.3-2-1.6-2.5-2.9-.7-2-1.5-2.4-5.4-2.4-3.1 0-4.7.5-5.1 1.5-1.1 2.7-2.2 1.6-2.9-3.1-.6-4-1.1-4.7-3.8-5.7-1.8-.6-3.4-1.1-3.7-1-7.1 1.5-6.7 1.7-7.3-2.4-.8-4.9-3.8-7.4-9.2-7.7-3.7-.3-4.4 0-5 1.8-.4 1.1-.7 2.4-.6 2.8.2 1.2-1.7 1-2.4-.2-.3-.6-.1-1 .4-1 .6 0 1.1-.9 1.1-2.1 0-1.1-.4-1.7-1-1.4-.5.3-.7 0-.4-.8.3-.9-1.1-2.7-3.8-4.8-2.4-1.9-4.4-3.7-4.6-4.1-.2-.5-.8-.8-1.3-.8-.6 0-.7.6-.3 1.2.6 1 .4 1-.7 0-1.6-1.5-1.8-1.5-5.1.7zM560.3 381.4c-2.4.5-4.3 1.3-4.3 1.7 0 .5-1 1.9-2.3 3.3-2.5 2.7-4.4 9.5-5.1 19.1-.3 3.3-.5 6.1-.6 6.3 0 .2-.5 0-1.2-.4-.7-.5-.8-.3-.2.7 1.2 2 1.4 6.9.3 6.9-1.2 0-1.2 23.7.1 24.5.6.3 1 2.4 1 4.6 0 2.8-.4 3.8-1.2 3.3-.7-.5-.8-.3-.2.7 1.2 2 1.5 3.5 2 11.9.6 10.6 2.4 20.9 3.7 21.7.7.3.9.3.5-.2-.4-.4.2-1.9 1.2-3.3 1.1-1.3 2-3.1 2-3.8 0-.8.9-2.4 2-3.7 1.2-1.2 2.7-2.9 3.5-3.8.8-.9 1.5-2.1 1.5-2.7 0-.6 1.4-2.6 3-4.4 1.7-1.8 3.3-4.3 3.6-5.5.4-1.3 1-2 1.5-1.7.5.3.9 0 .9-.6s1.2-2.3 2.7-3.7l2.6-2.7-.7 9.9c-.4 5.5-1.1 10.2-1.6 10.5-.8.5-1.5 5.4-2.6 17.5-.3 3.8-1 7.1-1.5 7.3-.5.2-.9 2.2-.9 4.5-.1 2.3-.5 6.1-.9 8.4-.5 2.4-.4 4.3 0 4.3.5 0 .9.6.9 1.3 0 .8 2.6 2.1 6.4 3.2 3.6 1 6.3 2.2 6.1 2.6-.3.4.3 1 1.3 1.3 3.2 1.2 6.2 3.3 5.5 3.9-.3.4.2.8 1.3.8 4.4.3 8.4 1.9 8.4 3.4 0 .8 1.5 1.6 3.3 2 4.6.9 12.7 4.7 12.1 5.7-.4.7 4.4 1.3 6.9.9.5-.1.6.3.3.8-.4.5.7 1.5 2.4 2.3 1.6.7 3 1.6 3 1.9 0 .4 1.2 1 2.8 1.3 3.8 1 8.2 3 8.2 3.8 0 .6 1.9 1.2 7.9 2.3 1.3.2 2.6.6 2.8.9.5.5 8.3-6.5 8.3-7.6 0-.4 1.1-1.8 2.5-3.2 1.4-1.4 2.5-3.1 2.5-3.9 0-.8 1.6-3.1 3.5-5.1 1.9-2.1 3.5-4.7 3.5-5.9 0-4.6 2.5-20.7 3.2-20.7.4 0 .8-1.8.8-4.1 0-2.9-.3-3.8-1.2-3.3-1 .6-1 .5-.1-.7.6-.8 1.1-3.7 1.1-6.4s-.5-5.6-1.1-6.4c-.9-1.2-.9-1.3.1-.7.9.5 1.2-.3 1.2-3.3 0-2.2-.5-4.1-1.2-4.3-1.8-.6-1.8-30.6 0-31.7.8-.5 1.4-3.4 1.5-7.7.2-6-.1-7.3-2-9.4-1.3-1.3-2.3-2.9-2.3-3.4 0-.6-.9-1.7-2-2.4s-2-2-2-3-.8-2.5-1.9-3.4c-1.6-1.4-10.1-4.7-13.4-5.2-.7-.1-1.9-.6-2.7-1.1-2-1.3-21.1-1.5-26.7-.3-4 .9-4.8.8-6-.8-.7-1-1.3-2.8-1.3-4.1 0-1.5-1.6-3.9-4.5-6.5-2.4-2.3-4.2-4.5-3.9-5 .3-.4.1-.8-.3-.8-.5 0-2-1.1-3.5-2.4-1.4-1.4-2.8-2.3-3.1-2-.6.6-5.7-1.7-5.7-2.7 0-2.5-22.5-3.6-31.7-1.5zm49.3 63.9c.1 18.7.9 28.8 2.3 29.7.5.3 1.1 3.4 1.4 7 .6 6.2 1.6 11 3.2 15.5.6 1.6.5 1.7-.4.5-.6-.8-1.6-3.4-2.2-5.8-.6-2.3-1.6-4.2-2.1-4.2s-.7-.3-.5-.8c.3-.4 0-1.8-.6-3.2-.5-1.4-1.1-3.2-1.3-4-.2-.8-.6-3.1-.9-5-.4-1.9-1.1-3.8-1.7-4.1-1.5-.9-1.5-34.2 0-34.7.7-.2 1.2-1.3 1.2-2.5 0-1.9 1-6.7 1.4-6.7 0 0 .1 8.2.2 18.3z"/><path d="M569 467.4c-.5 1.3-1.8 2.7-2.9 3.1-1.1.3-2.2 1.8-2.6 3.5-.3 1.5-1.7 4.1-3.1 5.7-1.3 1.5-2.4 3.2-2.4 3.6 0 .5-.5.5-1.1.2-.6-.4-.9-.1-.7.7.3 1.6-2.9 8.3-5.4 11.1-.9 1-1.9 3.4-2.3 5.3-.3 1.9-1 3.2-1.6 2.9-.5-.4-.9.1-.9.9 0 .9-.5 1.6-1.1 1.6-.6 0-.9.8-.7 1.7.2 1-.3 2.3-1.1 2.9-2.1 1.6-2.2 15.1-.1 16.4.8.5 1.1 1 .7 1-.4 0-.2.6.4 1.3 1.6 1.7 7.6 2.1 10.9.7 1.6-.6 3.2-2.5 4-4.5.7-1.9 1.7-3.2 2.2-2.9.4.3.8.4.8.2s.5-3 1.1-6.3c.5-3.3 1.2-7.6 1.5-9.5.3-1.9.8-3.7 1.3-4 .7-.4 1.7-5.2 2.8-13.5.2-1.7.6-7.3 1-12.5.3-5.2 1-10.1 1.5-10.8.7-.8.7-1.2-.1-1.2-.6 0-1.6 1.1-2.1 2.4zM680.8 504.6c-1 1.9-1.8 4.2-1.8 5 0 .8-.7 1.7-1.5 2-.9.4-1.5 1.9-1.5 3.8-.1 1.7-.7 4.2-1.5 5.6-.8 1.4-1.4 3.6-1.5 5 0 1.4-.9 3.1-2 3.8-1.1.7-2 1.9-2 2.7 0 .8-.4 1.5-1 1.5-.5 0-1 .5-1 1 0 .6-1.1 2.3-2.5 3.8s-2.5 3.3-2.5 4c0 .7-2.1 3.3-4.6 5.7-2.5 2.5-4.4 5-4.2 5.7.5 1.3-7.2 7.8-9 7.8-1.6 0-2.1 2.6-1.7 7.5.9 8.4 8.4 13.2 16.6 10.3 1.6-.5 2.9-1.7 2.9-2.5s.4-1.2.8-.9c.4.2 1.7-.9 2.7-2.5 1.1-1.6 2.3-2.9 2.8-2.9.4 0 .7-1.8.7-4 0-2.9.5-4.3 2-5.2 1.5-1 2-2.4 2-5.4 0-2.3.7-5.8 1.5-7.7.8-2 1.5-5.5 1.5-7.7s.4-4 .8-4c.5 0 1.5-2.6 2.2-5.8.8-3.1 1.9-6 2.4-6.4.7-.5.7-.8-.1-.8-.7 0-1.3-.5-1.3-1.1 0-.5.4-.8.8-.5.5.3.9-.1.9-.9s-.3-1.2-.7-1c-.4.2-.7-.2-.7-1s.4-1.2.8-1c.4.3 1-2.8 1.4-6.8.3-3.9.9-8 1.1-9 .9-3-1-1.8-2.8 1.9zM565.2 516.2c-.6.8-1.6 3.8-2.3 6.6-.6 2.9-1.4 5-1.8 4.8-.4-.3-.8.3-.8 1.2 0 2 4.2 6.2 6.3 6.2.7 0 1.4.5 1.4 1.1 0 .8.6.7 1.7-.2 1.4-1.2 1.6-1.2.8 0-.6 1.1-.4 1.3.9.8 1-.4 1.9-.1 2.2.8.4.8 1.1 1.5 1.8 1.5.6 0 1.8.9 2.6 1.9.7 1.1 1.7 1.8 2.1 1.5.4-.2 1 0 1.4.5.3.6 1.2.8 2 .5.8-.3 3 .7 5.1 2.2 2 1.6 5.5 3 7.8 3.3 3.6.5 4.2 1 5.2 3.9.5 1.8 1.3 2.9 1.7 2.6.4-.4.7-.2.7.5s.4 1 .9.6c.5-.3 1.2-.1 1.5.4.4.5 1.9.7 3.4.5 2.2-.4 3.1.1 4.1 1.9 1.1 2 2.1 2.4 6.8 2.6 3.9.1 6.1.7 7.6 2.1 1.1 1.1 2.6 2 3.1 2.1.6.1 2.3.2 3.7.3 3.5.4 5.3-1.1 6.9-5.6.8-2 1.7-3.5 2.2-3.2.4.3.8-.2.8-1 0-1-.6-1.3-1.5-1-1 .4-1.5 0-1.5-1.5 0-1.9-1.5-2.7-4.2-2.2-.5 0-.8-.3-.8-.9 0-.5-.6-1-1.4-1-.7 0-1.9-.7-2.6-1.5-.7-.8-2-1.5-3-1.5-2.8 0-11.1-4-10.5-5.1.4-.5-.2-.9-1.1-.9-2.5 0-8.4-2.3-8.4-3.2 0-.4-.9-.8-2-.8s-2-.6-2-1.3c0-.6-3-2.1-6.6-3.2-3.6-1.1-6.8-2.3-7-2.7-.3-.5-1.6-.8-3-.8s-2.2-.4-1.9-1c.3-.6-.1-1-.9-1-.9 0-2.5-.9-3.5-1.9-1-1-3.6-2.5-5.7-3.2-2.2-.7-4.5-2-5.1-2.8-.9-1-1.3-1.1-1.3-.2 0 .7-1 0-2.3-1.5-1.9-2.2-2.5-2.4-3.5-1.2z"/></svg>